<?xml version="1.0" standalone="no"?><!DOCTYPE svg PUBLIC "-//W3C//DTD SVG 1.1//EN" "http://www.w3.org/Graphics/SVG/1.1/DTD/svg11.dtd"><svg t="1705723487557" class="icon" viewBox="0 0 1024 1024" version="1.1" xmlns="http://www.w3.org/2000/svg" p-id="7718" xmlns:xlink="http://www.w3.org/1999/xlink" width="16" height="16"><path d="M818.389333 85.333333H305.109333a7.68 7.68 0 0 0-7.637333 7.637334v53.333333c0 4.181333 3.456 7.594667 7.68 7.594667h474.965333v655.232c0 4.224 3.413333 7.637333 7.68 7.637333h53.589334a7.68 7.68 0 0 0 7.68-7.637333V115.797333A30.506667 30.506667 0 0 0 818.346667 85.333333z" fill="#0068FF" p-id="7719"></path><path d="M695.850667 207.232H205.568a30.506667 30.506667 0 0 0-30.634667 30.464v505.429333c0 8.106667 3.242667 15.786667 8.96 21.546667L349.866667 929.706667c2.133333 2.133333 4.48 3.84 7.082666 5.248v1.792h4.010667a30.336 30.336 0 0 0 10.538667 1.92h324.352c16.938667 0 30.634667-13.653333 30.634666-30.464V237.653333a30.549333 30.549333 0 0 0-30.634666-30.464zM356.864 839.808L274.346667 757.717333h82.474666v82.090667z m300.672 30.293333h-239.36v-135.253333a38.186667 38.186667 0 0 0-38.357333-38.101333H243.882667V275.797333h413.653333v594.304z" fill="#0068FF" p-id="7720"></path></svg>