<svg xmlns="http://www.w3.org/2000/svg" viewBox="0 0 17 20" class="design-iconfont">
  <path d="M4.50186217,3.00781249 C3.94957741,3.00781249 3.50186216,3.45552775 3.50186216,4.00781249 C3.50186216,4.56009725 3.94957741,5.00781249 4.50186217,5.00781249 L7.50186217,5.00781249 L7.50186217,6.00781249 C7.50186217,6.02781248 7.50186217,6.04681249 7.50386218,6.0658125 C4.93799678,6.36888039 2.64921752,7.82240812 1.28390013,10.0159039 C-0.0814172612,12.2093997 -0.37507383,14.9047697 0.485862176,17.3408125 C0.675293723,17.80988 1.20051984,18.046578 1.67740567,17.8777925 C2.1542915,17.7090071 2.41368005,17.1946084 2.26586218,16.7108125 C1.15384047,13.5703416 2.55238047,10.0930876 5.52916232,8.59711988 C8.50594418,7.10115218 12.1307776,8.05393357 13.9872111,10.8203038 C15.8436446,13.5866741 15.3515763,17.3021927 12.8390377,19.489954 C10.3264991,21.6777152 6.57861285,21.6540835 4.09386217,19.4348125 C3.70505371,19.0871493 3.10802543,19.120504 2.76036218,19.5093125 C2.41269893,19.898121 2.44605372,20.4951492 2.83486218,20.8428125 C5.56695489,23.2861652 9.5575848,23.7030328 12.7356575,21.8770653 C15.9137302,20.0510978 17.5634134,16.3935781 16.8285392,12.8027198 C16.0936649,9.21186154 13.139757,6.49647324 9.49986217,6.0658125 L9.50186218,6.00781249 L9.50186218,5.00781249 L12.5018622,5.00781249 C13.0541469,5.00781249 13.5018622,4.56009725 13.5018622,4.00781249 C13.5018622,3.45552775 13.0541469,3.00781249 12.5018622,3.00781249 L4.50186217,3.00781249 Z M9.62286217,17.0428125 L7.50686218,14.9268125 L7.50186102,11.5088125 C7.50103374,10.9565278 7.94807742,10.5081409 8.50036218,10.5073114 C9.05264693,10.5064841 9.50103376,10.9535278 9.50186102,11.5058125 L9.50186102,14.0928125 L11.0378622,15.6278125 C11.4283275,16.018554 11.4281036,16.6518472 11.0373621,17.0423125 C10.6466207,17.4327778 10.0133275,17.4325539 9.62286217,17.0418125 L9.62286217,17.0428125 Z" transform="translate(.00595 -3)" fill="#EC6F48" fill-rule="nonzero"/>
</svg>
